<svg width="38" height="14" viewBox="0 0 38 14" fill="none" xmlns="http://www.w3.org/2000/svg">
<path d="M16.1294 13.083H13.1129L14.9982 1.17326H18.015L16.1294 13.083ZM10.5752 1.17326L7.69945 9.36486L7.35915 7.60089L7.35946 7.60153L6.34446 2.24559C6.34446 2.24559 6.22173 1.17326 4.91354 1.17326H0.159302L0.103516 1.37492C0.103516 1.37492 1.55737 1.68585 3.25885 2.7362L5.87958 13.0833H9.02252L13.8217 1.17326H10.5752ZM34.3015 13.083H37.0713L34.6564 1.17294H32.2315C31.1118 1.17294 30.839 2.0605 30.839 2.0605L26.3402 13.083H29.4846L30.1135 11.3139H33.9482L34.3015 13.083ZM30.9822 8.87011L32.5672 4.4132L33.4588 8.87011H30.9822ZM26.576 4.03728L27.0065 1.47973C27.0065 1.47973 25.6782 0.960449 24.2934 0.960449C22.7965 0.960449 19.2417 1.63297 19.2417 4.90317C19.2417 7.98 23.4139 8.01823 23.4139 9.63438C23.4139 11.2505 19.6715 10.9609 18.4365 9.9418L17.988 12.616C17.988 12.616 19.3349 13.2885 21.3928 13.2885C23.4514 13.2885 26.5568 12.1929 26.5568 9.21099C26.5568 6.11441 22.3471 5.82609 22.3471 4.47978C22.3474 3.13315 25.2852 3.30614 26.576 4.03728Z" fill="#2566AF"/>
</svg>
