<svg width="41" height="18" viewBox="0 0 41 18" fill="none" xmlns="http://www.w3.org/2000/svg">
<path d="M19.3955 9.10846V13.9972H17.8867V1.92415H21.8883C22.3659 1.91389 22.8408 2.00097 23.2856 2.18036C23.7303 2.35975 24.1361 2.6279 24.4795 2.96933C24.8263 3.29004 25.1024 3.68334 25.2891 4.12282C25.4758 4.5623 25.5688 5.03777 25.5618 5.51727C25.5718 5.99933 25.4802 6.4779 25.2934 6.92018C25.1065 7.36246 24.8289 7.75799 24.4795 8.07965C23.7797 8.76552 22.916 9.10813 21.8883 9.10749H19.3955V9.10846ZM19.3955 3.41053V7.62497H21.9258C22.2032 7.63342 22.4792 7.58227 22.7363 7.47478C22.9933 7.3673 23.2257 7.20584 23.4186 7.00075C23.6105 6.80899 23.763 6.57963 23.8672 6.32624C23.9713 6.07284 24.025 5.80054 24.025 5.52545C24.025 5.25037 23.9713 4.97807 23.8672 4.72467C23.763 4.47128 23.6105 4.24192 23.4186 4.05016C23.2282 3.84074 22.9966 3.67533 22.7392 3.56489C22.4818 3.45446 22.2046 3.40151 21.9258 3.40956H19.3955V3.41053ZM29.0386 5.46718C30.1538 5.46718 31.0341 5.77351 31.6795 6.38617C32.3248 6.99883 32.6472 7.83882 32.6466 8.90616V13.9972H31.2034V12.8509H31.1378C30.513 13.7949 29.6821 14.2669 28.645 14.2669C27.7597 14.2669 27.0191 13.9972 26.4231 13.4578C26.137 13.2102 25.9084 12.9001 25.7537 12.5501C25.599 12.2002 25.5223 11.8191 25.529 11.4348C25.529 10.5801 25.8433 9.90029 26.4718 9.39552C27.1003 8.89075 27.9394 8.63772 28.9889 8.63644C29.8848 8.63644 30.6227 8.80502 31.2025 9.14217V8.78768C31.2042 8.52567 31.1491 8.26657 31.0413 8.02914C30.9336 7.79171 30.7757 7.58192 30.5793 7.41497C30.1803 7.04495 29.6603 6.84305 29.123 6.84951C28.2802 6.84951 27.6132 7.21493 27.1222 7.94575L25.7933 7.08552C26.5243 6.00662 27.606 5.46718 29.0386 5.46718ZM27.0866 11.4685C27.0856 11.6659 27.1304 11.8607 27.2175 12.0366C27.3045 12.2126 27.4312 12.3646 27.587 12.48C27.9207 12.7498 28.3349 12.8928 28.7593 12.8846C29.396 12.8835 30.0063 12.623 30.4565 12.1602C30.9563 11.6766 31.2062 11.1092 31.2062 10.458C30.7358 10.0727 30.0798 9.88006 29.2382 9.88006C28.6253 9.88006 28.1143 10.0319 27.7051 10.3357C27.2918 10.644 27.0866 11.0187 27.0866 11.4685ZM40.9308 5.7369L35.8928 17.6385H34.3353L36.2049 13.4741L32.8921 5.7369H34.5321L36.9265 11.6708H36.9593L39.2881 5.7369H40.9308Z" fill="#5F6368"/>
<path d="M13.2987 8.0548C13.2992 7.58216 13.2604 7.11034 13.1825 6.64453H6.81934V9.31577H10.4639C10.3893 9.7424 10.2314 10.1491 9.99982 10.5113C9.76822 10.8736 9.46766 11.1839 9.11625 11.4235V13.1574H11.2913C12.5649 11.9504 13.2987 10.1654 13.2987 8.0548Z" fill="#4285F4"/>
<path d="M6.81863 14.8325C8.63948 14.8325 10.1726 14.2179 11.2906 13.1582L9.11555 11.4243C8.51016 11.8462 7.73046 12.087 6.81863 12.087C5.05869 12.087 3.5649 10.8675 3.03073 9.22412H0.790039V11.011C1.35163 12.1598 2.21278 13.1254 3.27733 13.8002C4.34188 14.475 5.56794 14.8324 6.81863 14.8325Z" fill="#34A853"/>
<path d="M3.03045 9.22402C2.74806 8.36287 2.74806 7.4303 3.03045 6.56915V4.78223H0.789764C0.317332 5.74857 0.0712891 6.81508 0.0712891 7.89658C0.0712891 8.97809 0.317332 10.0446 0.789764 11.0109L3.03045 9.22402Z" fill="#FBBC04"/>
<path d="M6.81863 3.70632C7.78086 3.69016 8.71064 4.06387 9.40699 4.74668L11.3328 2.7671C10.1116 1.58809 8.49387 0.940791 6.81863 0.960904C5.56794 0.960963 4.34188 1.31834 3.27733 1.99314C2.21278 2.66794 1.35163 3.63361 0.790039 4.78233L3.03073 6.56925C3.56489 4.92586 5.05869 3.70632 6.81863 3.70632Z" fill="#EA4335"/>
</svg>
