<svg width="43" height="18" viewBox="0 0 43 18" fill="none" xmlns="http://www.w3.org/2000/svg">
<path d="M8.57317 3.15217C8.0829 3.72639 7.29846 4.17929 6.51402 4.11459C6.41597 3.33818 6.80002 2.51326 7.24943 2.00374C7.73971 1.41335 8.59769 0.992799 9.29224 0.960449C9.37396 1.7692 9.05528 2.56178 8.57317 3.15217ZM9.28407 4.26825C8.14827 4.20355 7.17589 4.90717 6.63659 4.90717C6.08912 4.90717 5.26382 4.3006 4.36499 4.31678C3.1965 4.33295 2.10972 4.98804 1.51322 6.03133C0.287538 8.11792 1.19455 11.2074 2.37938 12.9057C2.95953 13.7468 3.65409 14.6688 4.56927 14.6365C5.43542 14.6041 5.77861 14.0784 6.82453 14.0784C7.87862 14.0784 8.18095 14.6365 9.09613 14.6203C10.044 14.6041 10.6405 13.7792 11.2207 12.9381C11.8825 11.9838 12.1522 11.0537 12.1685 11.0052C12.1522 10.989 10.3382 10.3016 10.3218 8.23114C10.3055 6.50041 11.7518 5.67548 11.8172 5.62696C11 4.43 9.72532 4.3006 9.28407 4.26825ZM15.8456 1.92287V14.5313H17.823V10.2207H20.5604C23.0608 10.2207 24.8176 8.52229 24.8176 6.06368C24.8176 3.60507 23.0935 1.92287 20.6258 1.92287H15.8456ZM17.823 3.57272H20.1028C21.8188 3.57272 22.7993 4.47853 22.7993 6.07177C22.7993 7.66502 21.8188 8.57891 20.0946 8.57891H17.823V3.57272ZM28.4293 14.6284C29.6713 14.6284 30.8235 14.0056 31.3464 13.019H31.3873V14.5313H33.2176V8.25541C33.2176 6.43571 31.7468 5.26302 29.4834 5.26302C27.3834 5.26302 25.8308 6.45189 25.7736 8.08557H27.555C27.702 7.30917 28.4293 6.79965 29.4262 6.79965C30.6355 6.79965 31.3137 7.35769 31.3137 8.38481V9.08034L28.846 9.22591C26.5499 9.3634 25.3079 10.2935 25.3079 11.911C25.3079 13.5447 26.5908 14.6284 28.4293 14.6284ZM28.9604 13.1322C27.9063 13.1322 27.2363 12.6308 27.2363 11.8624C27.2363 11.0699 27.8818 10.6089 29.1157 10.5361L31.3137 10.3986V11.1103C31.3137 12.2911 30.3005 13.1322 28.9604 13.1322ZM35.6608 17.9604C37.5892 17.9604 38.4963 17.2326 39.2889 15.0247L42.7616 5.38433H40.7515L38.4227 12.833H38.3819L36.0531 5.38433H33.9857L37.3359 14.5637L37.1562 15.1217C36.8538 16.068 36.3636 16.4319 35.4892 16.4319C35.334 16.4319 35.0316 16.4157 34.9091 16.3996V17.9119C35.0235 17.9443 35.5137 17.9604 35.6608 17.9604Z" fill="black"/>
</svg>
