<svg width="33" height="26" viewBox="0 0 33 26" fill="none" xmlns="http://www.w3.org/2000/svg">
<g clip-path="url(#clip0_2_820)">
<path d="M31.7971 17.0467V16.6611H31.6968L31.5807 16.9258L31.4653 16.6611H31.3646V17.0467H31.4359V16.7562L31.5444 17.0069H31.6183L31.7268 16.7556V17.0467H31.7974H31.7971ZM31.1606 17.0467V16.7272H31.289V16.6621H30.9609V16.7272H31.0894V17.0467H31.16H31.1606Z" fill="#F79410"/>
<path d="M20.3947 18.7005H11.7129V3.0835H20.3948L20.3947 18.7005Z" fill="#FF5F00"/>
<path d="M12.2636 10.892C12.2636 7.72411 13.7455 4.90213 16.0531 3.08353C14.3063 1.70491 12.1459 0.956682 9.92145 0.959972C4.44185 0.959972 0 5.40663 0 10.892C0 16.3774 4.44185 20.824 9.92145 20.824C12.1459 20.8274 14.3065 20.0791 16.0532 18.7005C13.7458 16.8822 12.2636 14.0601 12.2636 10.892Z" fill="#EB001B"/>
<path d="M32.1068 10.8925C32.1068 16.3779 27.6649 20.8245 22.1853 20.8245C19.9606 20.8278 17.7998 20.0796 16.0527 18.701C18.361 16.8824 19.8429 14.0606 19.8429 10.8925C19.8429 7.72444 18.361 4.90262 16.0527 3.08401C17.7998 1.70544 19.9605 0.957228 22.1852 0.96046C27.6648 0.96046 32.1066 5.40712 32.1066 10.8925" fill="#F79E1B"/>
</g>
<defs>
<clipPath id="clip0_2_820">
<rect width="32.1036" height="25" fill="white" transform="translate(0 0.960449)"/>
</clipPath>
</defs>
</svg>
