<svg width="28" height="28" viewBox="0 0 28 28" fill="none" xmlns="http://www.w3.org/2000/svg">
<path d="M18.6773 16.9985L15.6065 13.9321L18.6773 10.8657C19.1003 10.4427 19.1003 9.75608 18.6784 9.33192C18.2543 8.90672 17.5677 8.90781 17.1436 9.33082L14.0707 12.3994L10.9978 9.33082C10.5737 8.90781 9.88705 8.90672 9.46294 9.33192C9.03993 9.75602 9.03993 10.4426 9.46404 10.8657L12.5348 13.9321L9.46404 16.9985C9.03993 17.4215 9.03993 18.1081 9.46294 18.5323C9.67448 18.7449 9.95322 18.8501 10.2309 18.8501C10.5086 18.8501 10.7863 18.7438 10.9978 18.5333L14.0707 15.4647L17.1436 18.5333C17.3552 18.7449 17.6328 18.8501 17.9105 18.8501C18.1882 18.8501 18.467 18.7438 18.6785 18.5323C19.1014 18.1081 19.1014 17.4215 18.6773 16.9985Z" fill="#EB800C"/>
<path d="M27.25 13.9181C27.25 21.1865 21.3219 27.0863 14 27.0863C6.67807 27.0863 0.75 21.1865 0.75 13.9181C0.75 6.64971 6.67807 0.75 14 0.75C21.3219 0.75 27.25 6.64971 27.25 13.9181Z" stroke="#EB800C" stroke-width="1.5"/>
</svg>
