<svg width="15" height="17" viewBox="0 0 15 17" fill="none" xmlns="http://www.w3.org/2000/svg">
<path d="M10.1609 16.1105H1.25716C0.923738 16.1105 0.603975 15.9879 0.368213 15.7696C0.13245 15.5512 0 15.2552 0 14.9464V4.0065C0 3.69776 0.13245 3.40167 0.368213 3.18336C0.603975 2.96505 0.923738 2.84241 1.25716 2.84241H10.1626C10.496 2.84241 10.8158 2.96505 11.0515 3.18336C11.2873 3.40167 11.4197 3.69776 11.4197 4.0065V14.9464C11.4197 15.0994 11.3872 15.2509 11.3239 15.3923C11.2606 15.5336 11.1678 15.662 11.0509 15.7701C10.934 15.8782 10.7952 15.9639 10.6425 16.0224C10.4898 16.0808 10.3261 16.1107 10.1609 16.1105ZM1.69716 14.5374H9.71918V4.4155H1.69886L1.69716 14.5374Z" fill="url(#paint0_linear_488_500)"/>
<path d="M13.6587 14.0949C13.4334 14.0949 13.2174 14.0121 13.0581 13.8645C12.8988 13.717 12.8093 13.517 12.8093 13.3084V1.57309H4.34894C4.12366 1.57309 3.9076 1.49023 3.7483 1.34272C3.589 1.19521 3.49951 0.995152 3.49951 0.786547C3.49951 0.577942 3.589 0.37788 3.7483 0.230374C3.9076 0.0828681 4.12366 0 4.34894 0L13.251 0C13.5844 0 13.9042 0.122645 14.1399 0.340954C14.3757 0.559263 14.5081 0.855354 14.5081 1.16409V13.3084C14.5081 13.517 14.4186 13.717 14.2593 13.8645C14.1 14.0121 13.884 14.0949 13.6587 14.0949Z" fill="url(#paint1_linear_488_500)"/>
<defs>
<linearGradient id="paint0_linear_488_500" x1="5.70987" y1="2.84241" x2="5.70987" y2="16.1105" gradientUnits="userSpaceOnUse">
<stop stop-color="#FABB35"/>
<stop offset="1" stop-color="#EB800C"/>
</linearGradient>
<linearGradient id="paint1_linear_488_500" x1="9.00382" y1="0" x2="9.00382" y2="14.0949" gradientUnits="userSpaceOnUse">
<stop stop-color="#FABB35"/>
<stop offset="1" stop-color="#EB800C"/>
</linearGradient>
</defs>
</svg>
