<svg width="26" height="26" viewBox="0 0 26 26" fill="none" xmlns="http://www.w3.org/2000/svg">
<path d="M25.2551 12.6982C24.8413 12.6982 24.5102 13.0293 24.5102 13.4431V20.219C24.5102 22.0619 23.0093 23.5573 21.1719 23.5573H4.8281C2.98514 23.5573 1.48981 22.0564 1.48981 20.219V13.3327C1.48981 12.9189 1.15874 12.5878 0.744907 12.5878C0.33107 12.5878 0 12.9189 0 13.3327V20.219C0 22.8841 2.16851 25.0471 4.8281 25.0471H21.1719C23.837 25.0471 26 22.8786 26 20.219V13.4431C26 13.0348 25.6689 12.6982 25.2551 12.6982Z" fill="url(#paint0_linear_2_9272)"/>
<path d="M12.4748 19.1328C12.6182 19.2762 12.8114 19.3535 12.999 19.3535C13.1866 19.3535 13.3797 19.2818 13.5232 19.1328L18.2575 14.3985C18.5499 14.106 18.5499 13.637 18.2575 13.3446C17.965 13.0521 17.496 13.0521 17.2035 13.3446L13.7439 16.8098V1.69644C13.7439 1.28261 13.4128 0.951538 12.999 0.951538C12.5851 0.951538 12.2541 1.28261 12.2541 1.69644V16.8098L8.78886 13.3446C8.49642 13.0521 8.0274 13.0521 7.73496 13.3446C7.44251 13.637 7.44251 14.106 7.73496 14.3985L12.4748 19.1328Z" fill="url(#paint1_linear_2_9272)"/>
<defs>
<linearGradient id="paint0_linear_2_9272" x1="13" y1="12.5878" x2="13" y2="25.0471" gradientUnits="userSpaceOnUse">
<stop stop-color="#EB800C"/>
<stop offset="0.9999" stop-color="#FABB35"/>
<stop offset="1" stop-opacity="0"/>
</linearGradient>
<linearGradient id="paint1_linear_2_9272" x1="12.9962" y1="0.951538" x2="12.9962" y2="19.3535" gradientUnits="userSpaceOnUse">
<stop stop-color="#EB800C"/>
<stop offset="0.9999" stop-color="#FABB35"/>
<stop offset="1" stop-opacity="0"/>
</linearGradient>
</defs>
</svg>
