<svg width="21" height="6" viewBox="0 0 21 6" fill="none" xmlns="http://www.w3.org/2000/svg">
<path d="M0.0352736 3.075C0.0352736 2.77167 0.0877736 2.48583 0.192774 2.2175C0.30944 1.94917 0.461107 1.71583 0.647774 1.5175C0.846107 1.31917 1.07944 1.16167 1.34777 1.045C1.61611 0.928333 1.90194 0.87 2.20527 0.87C2.50861 0.87 2.79444 0.928333 3.06277 1.045C3.33111 1.16167 3.56444 1.31917 3.76277 1.5175C3.96111 1.71583 4.11861 1.94917 4.23527 2.2175C4.35194 2.48583 4.41027 2.77167 4.41027 3.075C4.41027 3.39 4.35194 3.68167 4.23527 3.95C4.11861 4.20667 3.96111 4.43417 3.76277 4.6325C3.56444 4.83083 3.33111 4.9825 3.06277 5.0875C2.79444 5.20417 2.50861 5.2625 2.20527 5.2625C1.90194 5.2625 1.61611 5.20417 1.34777 5.0875C1.07944 4.9825 0.846107 4.83083 0.647774 4.6325C0.461107 4.43417 0.30944 4.20667 0.192774 3.95C0.0877736 3.68167 0.0352736 3.39 0.0352736 3.075ZM8.30676 3.075C8.30676 2.77167 8.35926 2.48583 8.46426 2.2175C8.58092 1.94917 8.73259 1.71583 8.91926 1.5175C9.11759 1.31917 9.35092 1.16167 9.61926 1.045C9.88759 0.928333 10.1734 0.87 10.4768 0.87C10.7801 0.87 11.0659 0.928333 11.3343 1.045C11.6026 1.16167 11.8359 1.31917 12.0343 1.5175C12.2326 1.71583 12.3901 1.94917 12.5068 2.2175C12.6234 2.48583 12.6818 2.77167 12.6818 3.075C12.6818 3.39 12.6234 3.68167 12.5068 3.95C12.3901 4.20667 12.2326 4.43417 12.0343 4.6325C11.8359 4.83083 11.6026 4.9825 11.3343 5.0875C11.0659 5.20417 10.7801 5.2625 10.4768 5.2625C10.1734 5.2625 9.88759 5.20417 9.61926 5.0875C9.35092 4.9825 9.11759 4.83083 8.91926 4.6325C8.73259 4.43417 8.58092 4.20667 8.46426 3.95C8.35926 3.68167 8.30676 3.39 8.30676 3.075ZM16.5782 3.075C16.5782 2.77167 16.6307 2.48583 16.7357 2.2175C16.8524 1.94917 17.0041 1.71583 17.1907 1.5175C17.3891 1.31917 17.6224 1.16167 17.8907 1.045C18.1591 0.928333 18.4449 0.87 18.7482 0.87C19.0516 0.87 19.3374 0.928333 19.6057 1.045C19.8741 1.16167 20.1074 1.31917 20.3057 1.5175C20.5041 1.71583 20.6616 1.94917 20.7782 2.2175C20.8949 2.48583 20.9532 2.77167 20.9532 3.075C20.9532 3.39 20.8949 3.68167 20.7782 3.95C20.6616 4.20667 20.5041 4.43417 20.3057 4.6325C20.1074 4.83083 19.8741 4.9825 19.6057 5.0875C19.3374 5.20417 19.0516 5.2625 18.7482 5.2625C18.4449 5.2625 18.1591 5.20417 17.8907 5.0875C17.6224 4.9825 17.3891 4.83083 17.1907 4.6325C17.0041 4.43417 16.8524 4.20667 16.7357 3.95C16.6307 3.68167 16.5782 3.39 16.5782 3.075Z" fill="#373737"/>
</svg>
