<svg width="17" height="16" viewBox="0 0 17 16" fill="none" xmlns="http://www.w3.org/2000/svg">
<path d="M13.575 15.7954C13.6929 15.9134 13.8456 15.9724 14.0018 15.9724C14.151 15.9724 14.3037 15.9169 14.4182 15.8024L16.823 13.4496C16.9375 13.3386 16.9999 13.1859 16.9999 13.0228C16.9999 12.8597 16.934 12.7105 16.823 12.596L14.4182 10.2433C14.1822 10.0143 13.8075 10.0177 13.575 10.2502C13.3459 10.4862 13.3494 10.861 13.5819 11.0935L14.9422 12.426H13.4327C12.5131 12.426 11.6491 12.02 11.0557 11.3155L5.81583 4.18449C5.01424 3.04977 3.70601 2.36963 2.31797 2.36963H0.596804C0.267145 2.36963 0.00341797 2.63683 0.00341797 2.96649C0.00341797 3.29614 0.270615 3.55987 0.596804 3.55987H2.31797C3.32083 3.55987 4.26817 4.04916 4.85114 4.87851L10.1118 12.0373C10.1187 12.0477 10.1257 12.0547 10.1326 12.0651C10.9516 13.0541 12.1522 13.6232 13.4362 13.6232H14.9457L13.5854 14.9557C13.3459 15.1847 13.3425 15.5595 13.575 15.7954Z" fill="black"/>
<path d="M16.82 2.5397L14.4013 0.169623C14.1653 -0.0594034 13.7906 -0.0559333 13.5581 0.176563C13.329 0.41253 13.3325 0.7873 13.565 1.0198L14.9426 2.36966H13.4331C12.1527 2.36966 10.9485 2.93529 10.1296 3.92427C10.1227 3.93121 10.1157 3.94162 10.1088 3.95203L9.12328 5.29495C8.92895 5.55868 8.98447 5.93345 9.25167 6.12778C9.35924 6.20412 9.4807 6.24229 9.60215 6.24229C9.78607 6.24229 9.96651 6.15901 10.081 5.99938L11.0561 4.67381C11.646 3.96591 12.5101 3.56338 13.4331 3.56338H14.9426L13.565 4.91324C13.329 5.14227 13.3256 5.52051 13.5581 5.75648C13.676 5.87446 13.8287 5.93345 13.9849 5.93345C14.1341 5.93345 14.2868 5.87793 14.4013 5.76342L16.82 3.39334C16.9345 3.2823 16.9969 3.12961 16.9969 2.96652C16.9969 2.80343 16.9345 2.65074 16.82 2.5397Z" fill="black"/>
<path d="M5.81241 11.8084L6.67646 10.6355C6.87079 10.3718 6.81527 9.99704 6.54807 9.80272C6.28434 9.60839 5.90957 9.66392 5.71525 9.93111L4.84772 11.1144C4.84425 11.1214 4.84078 11.1248 4.83731 11.1318C4.25781 11.9438 3.31394 12.4296 2.31455 12.4296H0.593386C0.263727 12.4296 0 12.6968 0 13.0264C0 13.3561 0.267197 13.6198 0.593386 13.6198H2.31455C3.70259 13.6198 5.01082 12.9432 5.81241 11.8084Z" fill="black"/>
</svg>
