<svg width="33" height="27" viewBox="0 0 33 27" fill="none" xmlns="http://www.w3.org/2000/svg">
<path d="M17.5468 1H1V26H23.963V1H17.3496" stroke="url(#paint0_linear_2_1796)" stroke-width="1.5"/>
<path d="M32.4243 13.4243C32.6586 13.1899 32.6586 12.8101 32.4243 12.5757L28.6059 8.75736C28.3716 8.52304 27.9917 8.52304 27.7574 8.75736C27.523 8.99167 27.523 9.37157 27.7574 9.60589L31.1515 13L27.7574 16.3941C27.523 16.6284 27.523 17.0083 27.7574 17.2426C27.9917 17.477 28.3716 17.477 28.6059 17.2426L32.4243 13.4243ZM10.1852 13.6H32V12.4H10.1852V13.6Z" fill="url(#paint1_linear_2_1796)"/>
<defs>
<linearGradient id="paint0_linear_2_1796" x1="-0.148148" y1="10" x2="22.9888" y2="26.9048" gradientUnits="userSpaceOnUse">
<stop stop-color="#EB800C"/>
<stop offset="1" stop-color="#FABB35"/>
</linearGradient>
<linearGradient id="paint1_linear_2_1796" x1="10.1852" y1="13" x2="33.7044" y2="14.3172" gradientUnits="userSpaceOnUse">
<stop stop-color="#EB800C"/>
<stop offset="1" stop-color="#FABB35"/>
</linearGradient>
</defs>
</svg>
