<svg width="17" height="19" viewBox="0 0 17 19" fill="none" xmlns="http://www.w3.org/2000/svg">
<path d="M8.64745 1.97624L13.3423 1.97623C14.6182 1.97623 15.6534 3.01528 15.6534 4.28735L15.6534 15.6023C15.6534 16.8782 14.6144 17.9134 13.3423 17.9134L8.57105 17.9134C8.28455 17.9134 8.05535 18.1426 8.05535 18.4291C8.05535 18.7156 8.28455 18.9448 8.57105 18.9448L13.3423 18.9448C15.1874 18.9448 16.6848 17.4436 16.6848 15.6023L16.6848 4.28735C16.6848 2.44228 15.1835 0.944824 13.3423 0.944825L8.64745 0.944825C8.36095 0.944825 8.13175 1.17403 8.13175 1.46053C8.13175 1.74703 8.36477 1.97624 8.64745 1.97624Z" fill="black"/>
<path d="M0.151506 10.3079L3.4291 13.5855C3.63156 13.7879 3.95626 13.7879 4.15872 13.5855C4.36119 13.383 4.36119 13.0583 4.15872 12.8558L1.75974 10.4568L12.2228 10.4568C12.5093 10.4568 12.7385 10.2276 12.7385 9.94114C12.7385 9.65464 12.5093 9.42544 12.2228 9.42544L1.75974 9.42544L4.15872 7.02645C4.36119 6.82399 4.36119 6.49929 4.15872 6.29682C4.0594 6.1975 3.9257 6.14402 3.79582 6.14402C3.66594 6.14402 3.53224 6.19368 3.43292 6.29682L0.155326 9.57442C-0.0509561 9.7807 -0.0509551 10.1092 0.151506 10.3079Z" fill="black"/>
</svg>
