<svg width="17" height="18" viewBox="0 0 17 18" fill="none" xmlns="http://www.w3.org/2000/svg">
<path d="M8.5 0.944824C3.81313 0.944824 0 4.75795 0 9.44482C0 14.1321 3.81313 17.9448 8.5 17.9448C13.1872 17.9448 17 14.1321 17 9.44482C17 4.75795 13.1872 0.944824 8.5 0.944824ZM8.5 1.68395C9.70957 1.68395 10.7907 3.28709 11.3726 5.60986C10.479 5.46099 9.51342 5.37961 8.5 5.37961C7.48694 5.37961 6.52099 5.46099 5.62739 5.60986C6.20935 3.28709 7.29043 1.68395 8.5 1.68395ZM11.5475 6.39735C11.7256 7.33859 11.8261 8.36969 11.8261 9.44482C11.8261 10.52 11.7256 11.5511 11.5475 12.4923C10.6062 12.6704 9.57513 12.7709 8.5 12.7709C7.42487 12.7709 6.39377 12.6704 5.45253 12.4923C5.27442 11.5511 5.17391 10.52 5.17391 9.44482C5.17391 8.36969 5.27442 7.33859 5.45253 6.39735C6.39377 6.21925 7.42487 6.11874 8.5 6.11874C9.57513 6.11874 10.6062 6.21925 11.5475 6.39735ZM6.56393 1.93821C5.80062 2.78453 5.18979 4.12384 4.82131 5.7665C3.17866 6.13498 1.83971 6.74581 0.993026 7.50912C1.69661 4.78502 3.84019 2.64143 6.56393 1.93821ZM4.66504 6.57221C4.51617 7.46581 4.43478 8.43177 4.43478 9.44482C4.43478 10.4582 4.51617 11.4238 4.66504 12.3174C2.34226 11.7355 0.73913 10.6544 0.73913 9.44482C0.73913 8.23526 2.34226 7.15417 4.66504 6.57221ZM0.993387 11.3805C1.83971 12.1438 3.17902 12.7547 4.82167 13.1232C5.19015 14.7658 5.80098 16.1048 6.56429 16.9514C3.84019 16.2482 1.69661 14.1043 0.993387 11.3805ZM8.5 17.2057C7.29043 17.2057 6.20935 15.6026 5.62739 13.2798C6.52099 13.4287 7.48694 13.51 8.5 13.51C9.51342 13.51 10.479 13.4287 11.3726 13.2798C10.7907 15.6026 9.70957 17.2057 8.5 17.2057ZM10.4357 16.9514C11.199 16.1051 11.8098 14.7658 12.1783 13.1232C13.821 12.7547 15.1599 12.1438 16.0066 11.3805C15.3034 14.1043 13.1594 16.2482 10.4357 16.9514ZM12.335 12.3174C12.4838 11.4238 12.5652 10.4582 12.5652 9.44482C12.5652 8.43177 12.4838 7.46581 12.335 6.57221C14.6577 7.15417 16.2609 8.23526 16.2609 9.44482C16.2609 10.6544 14.6577 11.7355 12.335 12.3174ZM12.1783 5.7665C11.8098 4.12384 11.199 2.78489 10.4357 1.93821C13.1594 2.64143 15.303 4.78502 16.0063 7.50876C15.1599 6.74581 13.821 6.13498 12.1783 5.7665Z" fill="black"/>
</svg>
