<svg width="34" height="37" viewBox="0 0 34 37" fill="none" xmlns="http://www.w3.org/2000/svg">
<path d="M13.8 11H1V36H33V11H23.784" stroke="#373737"/>
<path d="M15.5926 5.9075C15.7683 5.74317 15.961 5.58733 16.1706 5.44C16.386 5.29267 16.6183 5.16233 16.8676 5.049C17.1226 4.93567 17.3946 4.84783 17.6836 4.7855C17.9783 4.7175 18.2956 4.6835 18.6356 4.6835C19.0833 4.6835 19.497 4.74867 19.8766 4.879C20.262 5.00933 20.5935 5.1935 20.8711 5.4315C21.1488 5.6695 21.367 5.9585 21.5256 6.2985C21.6843 6.6385 21.7636 7.021 21.7636 7.446C21.7636 7.87667 21.6985 8.24783 21.5681 8.5595C21.4435 8.87117 21.282 9.146 21.0836 9.384C20.891 9.61633 20.6785 9.82033 20.4461 9.996C20.2195 10.166 20.0041 10.3275 19.8001 10.4805C19.5961 10.6335 19.4205 10.7865 19.2731 10.9395C19.1315 11.0925 19.0493 11.2625 19.0266 11.4495L18.8736 12.75H17.8366L17.7346 11.339C17.712 11.084 17.7601 10.863 17.8791 10.676C17.9981 10.4833 18.154 10.3048 18.3466 10.1405C18.5393 9.9705 18.7518 9.80617 18.9841 9.6475C19.2165 9.48317 19.4318 9.30183 19.6301 9.1035C19.8341 8.90517 20.0041 8.68133 20.1401 8.432C20.2761 8.177 20.3441 7.87383 20.3441 7.5225C20.3441 7.27883 20.296 7.05783 20.1996 6.8595C20.1033 6.66117 19.973 6.494 19.8086 6.358C19.6443 6.21633 19.4488 6.10867 19.2221 6.035C19.0011 5.96133 18.7631 5.9245 18.5081 5.9245C18.1625 5.9245 17.865 5.967 17.6156 6.052C17.372 6.137 17.1651 6.2305 16.9951 6.3325C16.8251 6.4345 16.6863 6.528 16.5786 6.613C16.4766 6.698 16.3916 6.7405 16.3236 6.7405C16.182 6.7405 16.0715 6.67533 15.9921 6.545L15.5926 5.9075ZM17.2501 16.065C17.2501 15.9177 17.2756 15.7788 17.3266 15.6485C17.3833 15.5182 17.457 15.4048 17.5476 15.3085C17.644 15.2122 17.7573 15.1357 17.8876 15.079C18.018 15.0223 18.1568 14.994 18.3041 14.994C18.4515 14.994 18.5903 15.0223 18.7206 15.079C18.851 15.1357 18.9643 15.2122 19.0606 15.3085C19.157 15.4048 19.2335 15.5182 19.2901 15.6485C19.3468 15.7788 19.3751 15.9177 19.3751 16.065C19.3751 16.218 19.3468 16.3597 19.2901 16.49C19.2335 16.6147 19.157 16.7252 19.0606 16.8215C18.9643 16.9178 18.851 16.9915 18.7206 17.0425C18.5903 17.0992 18.4515 17.1275 18.3041 17.1275C18.1568 17.1275 18.018 17.0992 17.8876 17.0425C17.7573 16.9915 17.644 16.9178 17.5476 16.8215C17.457 16.7252 17.3833 16.6147 17.3266 16.49C17.2756 16.3597 17.2501 16.218 17.2501 16.065Z" fill="#373737"/>
<circle cx="11.5" cy="24.5" r="1.5" fill="#373737"/>
<circle cx="17.5" cy="24.5" r="1.5" fill="#373737"/>
<circle cx="23.5" cy="24.5" r="1.5" fill="#373737"/>
</svg>
