<svg width="17" height="18" viewBox="0 0 17 18" fill="none" xmlns="http://www.w3.org/2000/svg">
<path d="M8.03736 16.9686H3.34253C2.06664 16.9686 1.03141 15.9295 1.03141 14.6575L1.03141 3.34253C1.03141 2.06664 2.07046 1.03141 3.34253 1.03141L8.11376 1.03141C8.40026 1.03141 8.62947 0.802207 8.62947 0.515705C8.62947 0.229202 8.40026 0 8.11376 0L3.34253 0C1.49745 0 0 1.50127 0 3.34253L0 14.6575C0 16.5025 1.50127 18 3.34253 18H8.03736C8.32386 18 8.55307 17.7708 8.55307 17.4843C8.55307 17.1978 8.32004 16.9686 8.03736 16.9686Z" fill="black"/>
<path d="M16.5333 8.63696L13.2557 5.35937C13.0533 5.1569 12.7286 5.1569 12.5261 5.35937C12.3236 5.56183 12.3236 5.88653 12.5261 6.08899L14.9251 8.48798L4.46199 8.48798C4.17549 8.48798 3.94629 8.71718 3.94629 9.00368C3.94629 9.29019 4.17549 9.51939 4.46199 9.51939L14.9251 9.51939L12.5261 11.9184C12.3236 12.1208 12.3236 12.4455 12.5261 12.648C12.6254 12.7473 12.7591 12.8008 12.889 12.8008C13.0189 12.8008 13.1526 12.7511 13.2519 12.648L16.5295 9.37041C16.7358 9.16413 16.7358 8.8356 16.5333 8.63696Z" fill="black"/>
</svg>
