<svg width="34" height="27" viewBox="0 0 34 27" fill="none" xmlns="http://www.w3.org/2000/svg">
<path d="M17.5273 17.86C18.1523 17.795 18.6298 17.5925 18.9598 17.2525C19.2898 16.9075 19.4548 16.4675 19.4548 15.9325C19.4548 15.6975 19.4098 15.495 19.3198 15.325C19.2348 15.155 19.1173 15.0075 18.9673 14.8825C18.8173 14.7525 18.6398 14.6425 18.4348 14.5525C18.2348 14.4625 18.0198 14.38 17.7898 14.305L17.5273 17.86ZM17.2273 9.3925C16.9123 9.4225 16.6398 9.485 16.4098 9.58C16.1848 9.675 15.9973 9.7925 15.8473 9.9325C15.7023 10.0725 15.5948 10.2325 15.5248 10.4125C15.4548 10.5925 15.4198 10.78 15.4198 10.975C15.4198 11.2 15.4598 11.3975 15.5398 11.5675C15.6198 11.7375 15.7298 11.8875 15.8698 12.0175C16.0148 12.1425 16.1823 12.2525 16.3723 12.3475C16.5673 12.4425 16.7748 12.53 16.9948 12.61L17.2273 9.3925ZM17.8873 12.9025C18.2473 13.0125 18.6023 13.135 18.9523 13.27C19.3073 13.4 19.6248 13.5675 19.9048 13.7725C20.1848 13.9775 20.4098 14.235 20.5798 14.545C20.7548 14.85 20.8423 15.235 20.8423 15.7C20.8423 16.15 20.7648 16.575 20.6098 16.975C20.4598 17.375 20.2398 17.7275 19.9498 18.0325C19.6598 18.3375 19.3023 18.585 18.8773 18.775C18.4573 18.965 17.9773 19.0775 17.4373 19.1125L17.3473 20.365C17.3423 20.465 17.3023 20.555 17.2273 20.635C17.1523 20.715 17.0573 20.755 16.9423 20.755H16.4023L16.5223 19.09C15.9273 19.025 15.3773 18.8725 14.8723 18.6325C14.3673 18.3875 13.9348 18.08 13.5748 17.71L14.0173 17.035C14.0623 16.975 14.1173 16.925 14.1823 16.885C14.2473 16.845 14.3198 16.825 14.3998 16.825C14.4998 16.825 14.6098 16.87 14.7298 16.96C14.8548 17.05 15.0023 17.155 15.1723 17.275C15.3423 17.39 15.5423 17.505 15.7723 17.62C16.0073 17.73 16.2873 17.8075 16.6123 17.8525L16.8898 14.035C16.5398 13.93 16.1948 13.8125 15.8548 13.6825C15.5148 13.5475 15.2098 13.3725 14.9398 13.1575C14.6698 12.9375 14.4523 12.665 14.2873 12.34C14.1223 12.015 14.0398 11.6075 14.0398 11.1175C14.0398 10.7475 14.1123 10.3875 14.2573 10.0375C14.4023 9.6875 14.6123 9.375 14.8873 9.1C15.1673 8.825 15.5098 8.6 15.9148 8.425C16.3248 8.25 16.7923 8.1525 17.3173 8.1325L17.3923 7.0825C17.3973 6.9825 17.4373 6.8925 17.5123 6.8125C17.5873 6.7325 17.6823 6.6925 17.7973 6.6925H18.3373L18.2323 8.17C18.7573 8.24 19.2098 8.38 19.5898 8.59C19.9748 8.795 20.3123 9.0425 20.6023 9.3325L20.2498 9.8725C20.1448 10.0375 20.0223 10.12 19.8823 10.12C19.8123 10.12 19.7248 10.09 19.6198 10.03C19.5198 9.97 19.3973 9.9025 19.2523 9.8275C19.1123 9.7475 18.9498 9.6675 18.7648 9.5875C18.5798 9.5075 18.3723 9.4475 18.1423 9.4075L17.8873 12.9025Z" fill="#373737"/>
<path d="M20.2004 0.999999L33.0004 1L33.0004 26.0667L20.2004 26.0667" stroke="#373737"/>
<path d="M13.8 26.0666L1 26.0667L0.999999 0.999986L13.8 0.999985" stroke="#373737"/>
</svg>
