<svg width="17" height="17" viewBox="0 0 17 17" fill="none" xmlns="http://www.w3.org/2000/svg">
<path d="M5.63172 13.4103C5.98533 13.0041 6.20022 12.4741 6.20022 11.8945C6.20022 10.6197 5.16315 9.58266 3.88839 9.58266C3.40857 9.58266 2.96248 9.72968 2.59267 9.9809C2.53848 9.64724 2.51089 9.3084 2.51089 8.96697C2.51089 7.33175 3.1365 5.78386 4.27245 4.6083C5.11607 3.73526 6.17399 3.13644 7.33055 2.86288L6.56217 3.78818L7.33026 4.42601L9.30139 2.05232L6.67041 0.579102L6.18265 1.45022L7.00981 1.9134C5.70403 2.23989 4.51051 2.9253 3.55453 3.91455C2.23772 5.27724 1.51254 7.07154 1.51254 8.96701C1.51254 9.63771 1.60391 10.3003 1.78381 10.9397C1.65113 11.231 1.57658 11.5541 1.57658 11.8945C1.57658 12.4753 1.7923 13.0063 2.14718 13.4128C0.894791 13.8781 0 15.0854 0 16.4978V16.997H7.78524V16.4978C7.7853 15.0829 6.88752 13.8739 5.63172 13.4103ZM3.88842 10.581C4.61268 10.581 5.20187 11.1703 5.20187 11.8945C5.20187 12.6187 4.61265 13.2079 3.88839 13.2079C3.16416 13.2079 2.57497 12.6187 2.57497 11.8945C2.57497 11.1703 3.16419 10.581 3.88842 10.581ZM1.0532 15.9986C1.28161 14.9742 2.19775 14.2064 3.28987 14.2064H4.4955C5.58762 14.2064 6.50376 14.9743 6.73217 15.9986H1.0532Z" fill="black"/>
<path d="M16.9567 6.91508C16.9567 5.50026 16.0589 4.2912 14.8031 3.82759C15.1567 3.42142 15.3716 2.89139 15.3716 2.3118C15.3716 1.03707 14.3346 0 13.0598 0C11.785 0 10.748 1.03707 10.748 2.3118C10.748 2.89256 10.9637 3.42354 11.3186 3.83005C10.0662 4.29542 9.17145 5.50265 9.17145 6.91512V7.41429H14.8714C14.9943 7.90875 15.0565 8.41815 15.0565 8.93337C15.0565 10.441 14.514 11.8981 13.5287 13.0365C12.8219 13.8532 11.9215 14.469 10.9219 14.8319L11.58 13.8023L10.7388 13.2646L9.07715 15.8645L11.8705 17L12.2465 16.0751L11.3843 15.7246C12.4943 15.2989 13.4935 14.6028 14.2837 13.6898C15.4259 12.3701 16.055 10.6808 16.055 8.93333C16.055 8.42001 16.0015 7.91144 15.8958 7.41426H16.9567V6.91508H16.9567ZM13.0598 0.998385C13.7841 0.998385 14.3732 1.58761 14.3732 2.3118C14.3732 3.03606 13.784 3.62525 13.0598 3.62525C12.3356 3.62525 11.7463 3.03603 11.7463 2.3118C11.7463 1.58757 12.3355 0.998385 13.0598 0.998385ZM10.2246 6.41591C10.453 5.39156 11.3692 4.62367 12.4613 4.62367H13.6669C14.759 4.62367 15.6752 5.39159 15.9036 6.41591H10.2246Z" fill="black"/>
</svg>
