<svg width="20" height="20" viewBox="0 0 20 20" fill="none" xmlns="http://www.w3.org/2000/svg">
<path d="M12.4736 13.3314C11.9024 13.6639 11.2499 13.8389 10.5868 13.8389C8.50863 13.8389 6.81738 12.1482 6.81738 10.0707C6.81738 7.99322 8.50801 6.3026 10.5868 6.3026C11.2499 6.3026 11.9018 6.47822 12.4743 6.80947C12.7743 6.98322 13.1555 6.88135 13.3286 6.58197C13.5018 6.28385 13.3999 5.90072 13.1011 5.72822C12.3386 5.28635 11.4693 5.05322 10.5868 5.05322C7.81926 5.05322 5.56738 7.30447 5.56738 10.0714C5.56738 12.8382 7.81926 15.0895 10.5868 15.0895C11.4705 15.0895 12.3405 14.8557 13.1018 14.4114C13.3999 14.2382 13.5011 13.8551 13.328 13.557C13.1549 13.2589 12.7724 13.1576 12.4736 13.3314Z" fill="black"/>
<path d="M10 8.125H5C4.655 8.125 4.375 8.40438 4.375 8.75C4.375 9.09562 4.655 9.375 5 9.375H10C10.345 9.375 10.625 9.09562 10.625 8.75C10.625 8.40438 10.345 8.125 10 8.125Z" fill="black"/>
<path d="M10 10.625H5C4.655 10.625 4.375 10.9044 4.375 11.25C4.375 11.5956 4.655 11.875 5 11.875H10C10.345 11.875 10.625 11.5956 10.625 11.25C10.625 10.9044 10.345 10.625 10 10.625Z" fill="black"/>
<path d="M10 0C4.48625 0 0 4.48625 0 10C0 15.5138 4.48625 20 10 20C15.5138 20 20 15.5138 20 10C20 4.48625 15.5138 0 10 0ZM10 18.75C5.175 18.75 1.25 14.825 1.25 10C1.25 5.175 5.175 1.25 10 1.25C14.825 1.25 18.75 5.175 18.75 10C18.75 14.825 14.825 18.75 10 18.75Z" fill="black"/>
</svg>
