<svg width="33" height="27" viewBox="0 0 33 27" fill="none" xmlns="http://www.w3.org/2000/svg">
<path d="M16.4257 17.86C17.0507 17.795 17.5282 17.5925 17.8582 17.2525C18.1882 16.9075 18.3532 16.4675 18.3532 15.9325C18.3532 15.6975 18.3082 15.495 18.2182 15.325C18.1332 15.155 18.0157 15.0075 17.8657 14.8825C17.7157 14.7525 17.5382 14.6425 17.3332 14.5525C17.1332 14.4625 16.9182 14.38 16.6882 14.305L16.4257 17.86ZM16.1257 9.3925C15.8107 9.4225 15.5382 9.485 15.3082 9.58C15.0832 9.675 14.8957 9.7925 14.7457 9.9325C14.6007 10.0725 14.4932 10.2325 14.4232 10.4125C14.3532 10.5925 14.3182 10.78 14.3182 10.975C14.3182 11.2 14.3582 11.3975 14.4382 11.5675C14.5182 11.7375 14.6282 11.8875 14.7682 12.0175C14.9132 12.1425 15.0807 12.2525 15.2707 12.3475C15.4657 12.4425 15.6732 12.53 15.8932 12.61L16.1257 9.3925ZM16.7857 12.9025C17.1457 13.0125 17.5007 13.135 17.8507 13.27C18.2057 13.4 18.5232 13.5675 18.8032 13.7725C19.0832 13.9775 19.3082 14.235 19.4782 14.545C19.6532 14.85 19.7407 15.235 19.7407 15.7C19.7407 16.15 19.6632 16.575 19.5082 16.975C19.3582 17.375 19.1382 17.7275 18.8482 18.0325C18.5582 18.3375 18.2007 18.585 17.7757 18.775C17.3557 18.965 16.8757 19.0775 16.3357 19.1125L16.2457 20.365C16.2407 20.465 16.2007 20.555 16.1257 20.635C16.0507 20.715 15.9557 20.755 15.8407 20.755H15.3007L15.4207 19.09C14.8257 19.025 14.2757 18.8725 13.7707 18.6325C13.2657 18.3875 12.8332 18.08 12.4732 17.71L12.9157 17.035C12.9607 16.975 13.0157 16.925 13.0807 16.885C13.1457 16.845 13.2182 16.825 13.2982 16.825C13.3982 16.825 13.5082 16.87 13.6282 16.96C13.7532 17.05 13.9007 17.155 14.0707 17.275C14.2407 17.39 14.4407 17.505 14.6707 17.62C14.9057 17.73 15.1857 17.8075 15.5107 17.8525L15.7882 14.035C15.4382 13.93 15.0932 13.8125 14.7532 13.6825C14.4132 13.5475 14.1082 13.3725 13.8382 13.1575C13.5682 12.9375 13.3507 12.665 13.1857 12.34C13.0207 12.015 12.9382 11.6075 12.9382 11.1175C12.9382 10.7475 13.0107 10.3875 13.1557 10.0375C13.3007 9.6875 13.5107 9.375 13.7857 9.1C14.0657 8.825 14.4082 8.6 14.8132 8.425C15.2232 8.25 15.6907 8.1525 16.2157 8.1325L16.2907 7.0825C16.2957 6.9825 16.3357 6.8925 16.4107 6.8125C16.4857 6.7325 16.5807 6.6925 16.6957 6.6925H17.2357L17.1307 8.17C17.6557 8.24 18.1082 8.38 18.4882 8.59C18.8732 8.795 19.2107 9.0425 19.5007 9.3325L19.1482 9.8725C19.0432 10.0375 18.9207 10.12 18.7807 10.12C18.7107 10.12 18.6232 10.09 18.5182 10.03C18.4182 9.97 18.2957 9.9025 18.1507 9.8275C18.0107 9.7475 17.8482 9.6675 17.6632 9.5875C17.4782 9.5075 17.2707 9.4475 17.0407 9.4075L16.7857 12.9025Z" fill="url(#paint0_linear_2_1771)"/>
<path d="M20.0005 1.00024L32.0005 1.00024L32.0005 26.0002L20.0005 26.0002" stroke="url(#paint1_linear_2_1771)" stroke-width="1.5"/>
<path d="M13.2123 26L1 26L0.999999 0.999997L13.2123 0.999997" stroke="url(#paint2_linear_2_1771)" stroke-width="1.5"/>
<defs>
<linearGradient id="paint0_linear_2_1771" x1="16.1488" y1="4" x2="16.1488" y2="23.1944" gradientUnits="userSpaceOnUse">
<stop stop-color="#EB800C"/>
<stop offset="1" stop-color="#FABB35"/>
</linearGradient>
<linearGradient id="paint1_linear_2_1771" x1="3.87503" y1="10.475" x2="36.9714" y2="25.8048" gradientUnits="userSpaceOnUse">
<stop stop-color="#EB800C"/>
<stop offset="1" stop-color="#FABB35"/>
</linearGradient>
<linearGradient id="paint2_linear_2_1771" x1="-1.38522" y1="3.99228" x2="21.7357" y2="20.4633" gradientUnits="userSpaceOnUse">
<stop stop-color="#EB800C"/>
<stop offset="1" stop-color="#FABB35"/>
</linearGradient>
</defs>
</svg>
