<svg width="11" height="11" viewBox="0 0 11 11" fill="none" xmlns="http://www.w3.org/2000/svg">
<path d="M7.82318 5.47154L10.4597 2.84086C10.7704 2.53084 10.9415 2.11832 10.9415 1.67938C10.9415 1.2404 10.7704 0.827884 10.4597 0.5178C10.4596 0.5178 10.4596 0.5178 10.4596 0.5178C9.82058 -0.119833 8.78072 -0.119799 8.14166 0.5178L5.50005 3.15356L2.85845 0.517734C2.21935 -0.119832 1.17953 -0.119866 0.540438 0.517767C0.229689 0.827851 0.0585938 1.2404 0.0585938 1.67934C0.058627 2.11829 0.229723 2.53081 0.540471 2.84082L3.17693 5.47154L0.540438 8.10222C0.229689 8.41228 0.0585938 8.82479 0.0585938 9.26374C0.0585938 9.70268 0.229689 10.1152 0.540471 10.4253C0.860018 10.7441 1.27964 10.9036 1.69943 10.9035C2.11915 10.9035 2.53893 10.7441 2.85845 10.4253L5.50005 7.78952L8.14166 10.4253C8.78076 11.0629 9.82058 11.0629 10.4597 10.4253C10.7704 10.1152 10.9415 9.70268 10.9415 9.26374C10.9415 8.82479 10.7704 8.41227 10.4596 8.10226L7.82318 5.47154ZM9.76689 9.73107C9.50983 9.98756 9.09154 9.98756 8.83441 9.73107L5.84646 6.74966C5.75074 6.65417 5.62543 6.60639 5.50009 6.60639C5.37475 6.60639 5.24944 6.65414 5.15371 6.74966L2.16576 9.73107C1.90867 9.98753 1.49031 9.9876 1.23329 9.73107C1.10828 9.60636 1.03938 9.44034 1.03938 9.26377C1.03941 9.0872 1.10824 8.92121 1.23325 8.7965L4.21765 5.81868C4.30986 5.72671 4.36165 5.6018 4.36165 5.47154C4.36165 5.34128 4.30982 5.21637 4.21765 5.1244L1.23325 2.14658C1.10828 2.02187 1.03941 1.85589 1.03941 1.67931C1.03941 1.50274 1.10824 1.33672 1.23329 1.21201C1.49035 0.955517 1.90864 0.955517 2.16576 1.21201L5.15371 4.19342C5.34513 4.3844 5.65501 4.3844 5.84643 4.19342L8.83438 1.21201C9.0914 0.95555 9.5098 0.955484 9.76689 1.21201C9.89186 1.33676 9.96076 1.50274 9.96076 1.67931C9.96073 1.85589 9.8919 2.02184 9.76692 2.14658L6.78253 5.1244C6.69032 5.21637 6.63852 5.34128 6.63852 5.47154C6.63852 5.6018 6.69035 5.72671 6.78253 5.81868L9.76692 8.7965C9.8919 8.92121 9.96076 9.0872 9.96076 9.26377C9.96076 9.44031 9.89193 9.60633 9.76689 9.73107Z" fill="black"/>
</svg>
