<svg width="21" height="21" viewBox="0 0 21 21" fill="none" xmlns="http://www.w3.org/2000/svg">
<path d="M14.2324 7.46484C14.025 7.46484 13.8199 7.47477 13.6172 7.4931V3.69141C13.6172 2.62455 12.8564 1.65662 11.4751 0.965959C10.2293 0.343055 8.58662 0 6.84961 0C5.10907 0 3.45323 0.342357 2.18708 0.963949C0.776754 1.65642 0 2.625 0 3.69141V14.8477C0 15.9141 0.776754 16.8827 2.18708 17.5751C3.45323 18.1967 5.10907 18.5391 6.84961 18.5391C7.54724 18.5391 8.22966 18.4834 8.8846 18.3748C10.1237 19.9709 12.06 21 14.2324 21C17.9641 21 21 17.9641 21 14.2324C21 10.5008 17.9641 7.46484 14.2324 7.46484ZM2.72938 2.0685C3.81413 1.53591 5.31587 1.23047 6.84961 1.23047C10.1127 1.23047 12.3867 2.52742 12.3867 3.69141C12.3867 4.85539 10.1127 6.15234 6.84961 6.15234C5.31587 6.15234 3.81413 5.8469 2.72938 5.31431C1.7768 4.84665 1.23047 4.25513 1.23047 3.69141C1.23047 3.12769 1.7768 2.53616 2.72938 2.0685ZM1.23047 5.83509C1.50626 6.04578 1.82569 6.24143 2.18708 6.41886C3.45323 7.04046 5.10907 7.38281 6.84961 7.38281C8.58662 7.38281 10.2293 7.03976 11.4751 6.41685C11.818 6.24541 12.1225 6.0569 12.3867 5.85404V7.72066C11.1605 8.06868 10.0751 8.75462 9.23762 9.67087C8.48802 9.83998 7.68575 9.92578 6.84961 9.92578C5.31587 9.92578 3.81413 9.62034 2.72938 9.08775C1.7768 8.62009 1.23047 8.02856 1.23047 7.46484V5.83509ZM1.23047 9.60853C1.50626 9.81922 1.82569 10.0149 2.18708 10.1923C3.45323 10.8139 5.10907 11.1562 6.84961 11.1562C7.32461 11.1562 7.79059 11.1308 8.245 11.0808C7.84075 11.8458 7.57883 12.6969 7.4947 13.599C7.28097 13.6107 7.06547 13.6172 6.84961 13.6172C5.31587 13.6172 3.81413 13.3117 2.72938 12.7792C1.7768 12.3115 1.23047 11.72 1.23047 11.1562V9.60853ZM6.84961 17.3086C5.31587 17.3086 3.81413 17.0032 2.72938 16.4706C1.7768 16.0029 1.23047 15.4114 1.23047 14.8477V13.2999C1.50626 13.5106 1.82569 13.7062 2.18708 13.8837C3.45323 14.5053 5.10907 14.8477 6.84961 14.8477C7.06412 14.8477 7.27859 14.8422 7.49167 14.8317C7.56714 15.6877 7.80253 16.4982 8.16785 17.2335C7.73883 17.283 7.2982 17.3086 6.84961 17.3086ZM14.2324 19.7695C11.1793 19.7695 8.69531 17.2856 8.69531 14.2324C8.69531 11.1793 11.1793 8.69531 14.2324 8.69531C17.2856 8.69531 19.7695 11.1793 19.7695 14.2324C19.7695 17.2856 17.2856 19.7695 14.2324 19.7695Z" fill="url(#paint0_linear_510_1444)"/>
<defs>
<linearGradient id="paint0_linear_510_1444" x1="10.5" y1="0" x2="10.5" y2="21" gradientUnits="userSpaceOnUse">
<stop stop-color="#EB810D"/>
<stop offset="1" stop-color="#F9B732"/>
</linearGradient>
</defs>
</svg>
