<svg width="25" height="25" viewBox="0 0 25 25" fill="none" xmlns="http://www.w3.org/2000/svg">
<path d="M16.9434 8.88672C16.6964 8.88672 16.4522 8.89853 16.2109 8.92036V4.39453C16.2109 3.12446 15.3053 1.97217 13.6608 1.14995C12.1777 0.408398 10.2222 0 8.1543 0C6.08223 0 4.11099 0.407568 2.60366 1.14756C0.924707 1.97192 0 3.125 0 4.39453V17.6758C0 18.9453 0.924707 20.0984 2.60366 20.9228C4.11099 21.6627 6.08223 22.0703 8.1543 22.0703C8.98481 22.0703 9.79722 22.004 10.5769 21.8748C12.0521 23.7749 14.3572 25 16.9434 25C21.3858 25 25 21.3858 25 16.9434C25 12.5009 21.3858 8.88672 16.9434 8.88672ZM3.24927 2.4625C4.54063 1.82847 6.32842 1.46484 8.1543 1.46484C12.039 1.46484 14.7461 3.00884 14.7461 4.39453C14.7461 5.78022 12.039 7.32422 8.1543 7.32422C6.32842 7.32422 4.54063 6.9606 3.24927 6.32656C2.11523 5.76982 1.46484 5.06563 1.46484 4.39453C1.46484 3.72344 2.11523 3.01924 3.24927 2.4625ZM1.46484 6.94653C1.79316 7.19736 2.17344 7.43027 2.60366 7.6415C4.11099 8.38149 6.08223 8.78906 8.1543 8.78906C10.2222 8.78906 12.1777 8.38066 13.6608 7.63911C14.069 7.43501 14.4315 7.2106 14.7461 6.96909V9.19126C13.2863 9.60557 11.9942 10.4222 10.9972 11.5129C10.1048 11.7143 9.14971 11.8164 8.1543 11.8164C6.32842 11.8164 4.54063 11.4528 3.24927 10.8187C2.11523 10.262 1.46484 9.55781 1.46484 8.88672V6.94653ZM1.46484 11.4387C1.79316 11.6896 2.17344 11.9225 2.60366 12.1337C4.11099 12.8737 6.08223 13.2812 8.1543 13.2812C8.71978 13.2812 9.27451 13.2509 9.81548 13.1915C9.33423 14.1021 9.02241 15.1153 8.92227 16.1893C8.66782 16.2032 8.41128 16.2109 8.1543 16.2109C6.32842 16.2109 4.54063 15.8473 3.24927 15.2133C2.11523 14.6565 1.46484 13.9523 1.46484 13.2812V11.4387ZM8.1543 20.6055C6.32842 20.6055 4.54063 20.2418 3.24927 19.6078C2.11523 19.0511 1.46484 18.3469 1.46484 17.6758V15.8332C1.79316 16.084 2.17344 16.3169 2.60366 16.5282C4.11099 17.2682 6.08223 17.6758 8.1543 17.6758C8.40967 17.6758 8.66499 17.6693 8.91865 17.6568C9.0085 18.6758 9.28872 19.6407 9.72363 20.5161C9.21289 20.575 8.68833 20.6055 8.1543 20.6055ZM16.9434 23.5352C13.3086 23.5352 10.3516 20.5781 10.3516 16.9434C10.3516 13.3086 13.3086 10.3516 16.9434 10.3516C20.5781 10.3516 23.5352 13.3086 23.5352 16.9434C23.5352 20.5781 20.5781 23.5352 16.9434 23.5352Z" fill="white"/>
</svg>
