<svg width="121" height="24" viewBox="0 0 121 24" fill="none" xmlns="http://www.w3.org/2000/svg">
<path d="M33.8242 15.0312H25.8672V23H24.4258V5.9375H34.9961V7.16797H25.8672V13.8008H33.8242V15.0312ZM96.918 16.4727C96.918 15.2539 97.1523 14.1562 97.6211 13.1797C98.0977 12.2031 98.7656 11.4453 99.625 10.9062C100.492 10.3594 101.473 10.0859 102.566 10.0859C104.254 10.0859 105.621 10.6797 106.668 11.8672C107.715 13.0469 108.238 14.6133 108.238 16.5664V16.8594C108.238 18.0859 108 19.1914 107.523 20.1758C107.055 21.1523 106.391 21.9062 105.531 22.4375C104.672 22.9688 103.691 23.2344 102.59 23.2344C100.91 23.2344 99.543 22.6445 98.4883 21.4648C97.4414 20.2773 96.918 18.707 96.918 16.7539V16.4727ZM98.3242 16.8594C98.3242 18.375 98.7148 19.6211 99.4961 20.5977C100.285 21.5664 101.316 22.0508 102.59 22.0508C103.855 22.0508 104.879 21.5664 105.66 20.5977C106.449 19.6211 106.844 18.3359 106.844 16.7422V16.4727C106.844 15.5039 106.664 14.6172 106.305 13.8125C105.945 13.0078 105.441 12.3867 104.793 11.9492C104.145 11.5039 103.402 11.2812 102.566 11.2812C101.316 11.2812 100.297 11.7734 99.5078 12.7578C98.7188 13.7344 98.3242 15.0156 98.3242 16.6016V16.8594ZM114.871 15.4648L118.293 10.3203H119.957L115.656 16.543L120.145 23H118.492L114.883 17.6328L111.273 23H109.621L114.098 16.543L109.797 10.3203H111.449L114.871 15.4648Z" fill="#FB791B"/>
<path d="M36.8242 16.4727C36.8242 15.2539 37.0586 14.1562 37.5273 13.1797C38.0039 12.2031 38.6719 11.4453 39.5312 10.9062C40.3984 10.3594 41.3789 10.0859 42.4727 10.0859C44.1602 10.0859 45.5273 10.6797 46.5742 11.8672C47.6211 13.0469 48.1445 14.6133 48.1445 16.5664V16.8594C48.1445 18.0859 47.9062 19.1914 47.4297 20.1758C46.9609 21.1523 46.2969 21.9062 45.4375 22.4375C44.5781 22.9688 43.5977 23.2344 42.4961 23.2344C40.8164 23.2344 39.4492 22.6445 38.3945 21.4648C37.3477 20.2773 36.8242 18.707 36.8242 16.7539V16.4727ZM38.2305 16.8594C38.2305 18.375 38.6211 19.6211 39.4023 20.5977C40.1914 21.5664 41.2227 22.0508 42.4961 22.0508C43.7617 22.0508 44.7852 21.5664 45.5664 20.5977C46.3555 19.6211 46.75 18.3359 46.75 16.7422V16.4727C46.75 15.5039 46.5703 14.6172 46.2109 13.8125C45.8516 13.0078 45.3477 12.3867 44.6992 11.9492C44.0508 11.5039 43.3086 11.2812 42.4727 11.2812C41.2227 11.2812 40.2031 11.7734 39.4141 12.7578C38.625 13.7344 38.2305 15.0156 38.2305 16.6016V16.8594ZM56.9102 11.5156C56.6133 11.4609 56.2969 11.4336 55.9609 11.4336C55.0859 11.4336 54.3438 11.6797 53.7344 12.1719C53.1328 12.6562 52.7031 13.3633 52.4453 14.293V23H51.0508V10.3203H52.4219L52.4453 12.3359C53.1875 10.8359 54.3789 10.0859 56.0195 10.0859C56.4102 10.0859 56.7188 10.1367 56.9453 10.2383L56.9102 11.5156ZM63.8125 23.2344C62.7344 23.2344 61.7578 22.9688 60.8828 22.4375C60.0156 21.9062 59.3398 21.168 58.8555 20.2227C58.3711 19.2695 58.1289 18.2031 58.1289 17.0234V16.5195C58.1289 15.3008 58.3633 14.2031 58.832 13.2266C59.3086 12.25 59.9688 11.4844 60.8125 10.9297C61.6562 10.3672 62.5703 10.0859 63.5547 10.0859C65.0938 10.0859 66.3125 10.6133 67.2109 11.668C68.1172 12.7148 68.5703 14.1484 68.5703 15.9688V16.7539H59.5234V17.0234C59.5234 18.4609 59.9336 19.6602 60.7539 20.6211C61.582 21.5742 62.6211 22.0508 63.8711 22.0508C64.6211 22.0508 65.2812 21.9141 65.8516 21.6406C66.4297 21.3672 66.9531 20.9297 67.4219 20.3281L68.3008 20.9961C67.2695 22.4883 65.7734 23.2344 63.8125 23.2344ZM63.5547 11.2812C62.5 11.2812 61.6094 11.668 60.8828 12.4414C60.1641 13.2148 59.7266 14.2539 59.5703 15.5586H67.1758V15.4062C67.1367 14.1875 66.7891 13.1953 66.1328 12.4297C65.4766 11.6641 64.6172 11.2812 63.5547 11.2812ZM75.2852 15.4648L78.707 10.3203H80.3711L76.0703 16.543L80.5586 23H78.9062L75.2969 17.6328L71.6875 23H70.0352L74.5117 16.543L70.2109 10.3203H71.8633L75.2852 15.4648ZM83.3008 23V5.9375H88.3398C90.168 5.9375 91.5547 6.31641 92.5 7.07422C93.4453 7.82422 93.918 8.93359 93.918 10.4023C93.918 11.2852 93.6758 12.0547 93.1914 12.7109C92.7148 13.3594 92.0586 13.8242 91.2227 14.1055C92.2148 14.3242 93.0117 14.8125 93.6133 15.5703C94.2227 16.3281 94.5273 17.2031 94.5273 18.1953C94.5273 19.7031 94.0391 20.8828 93.0625 21.7344C92.0938 22.5781 90.7422 23 89.0078 23H83.3008ZM84.7422 14.7969V21.7812H89.0664C90.3008 21.7812 91.2773 21.4688 91.9961 20.8438C92.7227 20.2109 93.0859 19.3359 93.0859 18.2188C93.0859 17.1641 92.7383 16.332 92.043 15.7227C91.3555 15.1055 90.4023 14.7969 89.1836 14.7969H84.7422ZM84.7422 13.5898H88.6797C89.8828 13.5664 90.8125 13.2852 91.4688 12.7461C92.1328 12.1992 92.4648 11.4062 92.4648 10.3672C92.4648 9.27344 92.1211 8.46875 91.4336 7.95312C90.7539 7.42969 89.7227 7.16797 88.3398 7.16797H84.7422V13.5898Z" fill="#FABB35"/>
<path d="M11 3.72008L1 1.30223V10.0669M16 1V22.7606H1V10.0669M1 10.0669H9.75" stroke="#FB791B" stroke-width="1.5"/>
</svg>
