<svg width="90" height="18" viewBox="0 0 90 18" fill="none" xmlns="http://www.w3.org/2000/svg">
<path d="M24.7432 11.0234H18.7754V17H17.6943V4.20312H25.6221V5.12598H18.7754V10.1006H24.7432V11.0234ZM72.0635 12.1045C72.0635 11.1904 72.2393 10.3672 72.5908 9.63477C72.9482 8.90234 73.4492 8.33398 74.0938 7.92969C74.7441 7.51953 75.4795 7.31445 76.2998 7.31445C77.5654 7.31445 78.5908 7.75977 79.376 8.65039C80.1611 9.53516 80.5537 10.71 80.5537 12.1748V12.3945C80.5537 13.3145 80.375 14.1436 80.0176 14.8818C79.666 15.6143 79.168 16.1797 78.5234 16.5781C77.8789 16.9766 77.1436 17.1758 76.3174 17.1758C75.0576 17.1758 74.0322 16.7334 73.2412 15.8486C72.4561 14.958 72.0635 13.7803 72.0635 12.3154V12.1045ZM73.1182 12.3945C73.1182 13.5312 73.4111 14.4658 73.9971 15.1982C74.5889 15.9248 75.3623 16.2881 76.3174 16.2881C77.2666 16.2881 78.0342 15.9248 78.6201 15.1982C79.2119 14.4658 79.5078 13.502 79.5078 12.3066V12.1045C79.5078 11.3779 79.373 10.7129 79.1035 10.1094C78.834 9.50586 78.4561 9.04004 77.9697 8.71191C77.4834 8.37793 76.9268 8.21094 76.2998 8.21094C75.3623 8.21094 74.5977 8.58008 74.0059 9.31836C73.4141 10.0508 73.1182 11.0117 73.1182 12.2012V12.3945ZM85.5283 11.3486L88.0947 7.49023H89.3428L86.1172 12.1572L89.4834 17H88.2441L85.5371 12.9746L82.8301 17H81.5908L84.9482 12.1572L81.7227 7.49023H82.9619L85.5283 11.3486Z" fill="#FB791B"/>
<path d="M26.9932 12.1045C26.9932 11.1904 27.1689 10.3672 27.5205 9.63477C27.8779 8.90234 28.3789 8.33398 29.0234 7.92969C29.6738 7.51953 30.4092 7.31445 31.2295 7.31445C32.4951 7.31445 33.5205 7.75977 34.3057 8.65039C35.0908 9.53516 35.4834 10.71 35.4834 12.1748V12.3945C35.4834 13.3145 35.3047 14.1436 34.9473 14.8818C34.5957 15.6143 34.0977 16.1797 33.4531 16.5781C32.8086 16.9766 32.0732 17.1758 31.2471 17.1758C29.9873 17.1758 28.9619 16.7334 28.1709 15.8486C27.3857 14.958 26.9932 13.7803 26.9932 12.3154V12.1045ZM28.0479 12.3945C28.0479 13.5312 28.3408 14.4658 28.9268 15.1982C29.5186 15.9248 30.292 16.2881 31.2471 16.2881C32.1963 16.2881 32.9639 15.9248 33.5498 15.1982C34.1416 14.4658 34.4375 13.502 34.4375 12.3066V12.1045C34.4375 11.3779 34.3027 10.7129 34.0332 10.1094C33.7637 9.50586 33.3857 9.04004 32.8994 8.71191C32.4131 8.37793 31.8564 8.21094 31.2295 8.21094C30.292 8.21094 29.5273 8.58008 28.9355 9.31836C28.3438 10.0508 28.0479 11.0117 28.0479 12.2012V12.3945ZM42.0576 8.38672C41.835 8.3457 41.5977 8.3252 41.3457 8.3252C40.6895 8.3252 40.1328 8.50977 39.6758 8.87891C39.2246 9.24219 38.9023 9.77246 38.709 10.4697V17H37.6631V7.49023H38.6914L38.709 9.00195C39.2656 7.87695 40.1592 7.31445 41.3896 7.31445C41.6826 7.31445 41.9141 7.35254 42.084 7.42871L42.0576 8.38672ZM47.2344 17.1758C46.4258 17.1758 45.6934 16.9766 45.0371 16.5781C44.3867 16.1797 43.8799 15.626 43.5166 14.917C43.1533 14.2021 42.9717 13.4023 42.9717 12.5176V12.1396C42.9717 11.2256 43.1475 10.4023 43.499 9.66992C43.8564 8.9375 44.3516 8.36328 44.9844 7.94727C45.6172 7.52539 46.3027 7.31445 47.041 7.31445C48.1953 7.31445 49.1094 7.70996 49.7832 8.50098C50.4629 9.28613 50.8027 10.3613 50.8027 11.7266V12.3154H44.0176V12.5176C44.0176 13.5957 44.3252 14.4951 44.9404 15.2158C45.5615 15.9307 46.3408 16.2881 47.2783 16.2881C47.8408 16.2881 48.3359 16.1855 48.7637 15.9805C49.1973 15.7754 49.5898 15.4473 49.9414 14.9961L50.6006 15.4971C49.8271 16.6162 48.7051 17.1758 47.2344 17.1758ZM47.041 8.21094C46.25 8.21094 45.582 8.50098 45.0371 9.08105C44.498 9.66113 44.1699 10.4404 44.0527 11.4189H49.7568V11.3047C49.7275 10.3906 49.4668 9.64648 48.9746 9.07227C48.4824 8.49805 47.8379 8.21094 47.041 8.21094ZM55.8389 11.3486L58.4053 7.49023H59.6533L56.4277 12.1572L59.7939 17H58.5547L55.8477 12.9746L53.1406 17H51.9014L55.2588 12.1572L52.0332 7.49023H53.2725L55.8389 11.3486ZM61.8506 17V4.20312H65.6299C67.001 4.20312 68.041 4.4873 68.75 5.05566C69.459 5.61816 69.8135 6.4502 69.8135 7.55176C69.8135 8.21387 69.6318 8.79102 69.2686 9.2832C68.9111 9.76953 68.4189 10.1182 67.792 10.3291C68.5361 10.4932 69.1338 10.8594 69.585 11.4277C70.042 11.9961 70.2705 12.6523 70.2705 13.3965C70.2705 14.5273 69.9043 15.4121 69.1719 16.0508C68.4453 16.6836 67.4316 17 66.1309 17H61.8506ZM62.9316 10.8477V16.0859H66.1748C67.1006 16.0859 67.833 15.8516 68.3721 15.3828C68.917 14.9082 69.1895 14.252 69.1895 13.4141C69.1895 12.623 68.9287 11.999 68.4072 11.542C67.8916 11.0791 67.1768 10.8477 66.2627 10.8477H62.9316ZM62.9316 9.94238H65.8848C66.7871 9.9248 67.4844 9.71387 67.9766 9.30957C68.4746 8.89941 68.7236 8.30469 68.7236 7.52539C68.7236 6.70508 68.4658 6.10156 67.9502 5.71484C67.4404 5.32227 66.667 5.12598 65.6299 5.12598H62.9316V9.94238Z" fill="#FABB35"/>
<path d="M7.66667 3L1 1.22222V7.66667M11 1V17H1V7.66667M1 7.66667H6.83333" stroke="#FB791B"/>
</svg>
