<svg width="17" height="17" viewBox="0 0 17 17" fill="none" xmlns="http://www.w3.org/2000/svg">
<path d="M9.49643 8.5042L16.7834 1.21719C17.0647 0.945564 17.0725 0.497393 16.8009 0.216146C16.5292 -0.0651018 16.0811 -0.0729004 15.7998 0.198723C15.7939 0.204406 15.7881 0.210214 15.7824 0.216146L8.49535 7.50316L1.20834 0.216104C0.92709 -0.0555194 0.478919 -0.0477208 0.207296 0.233527C-0.057691 0.507888 -0.057691 0.942827 0.207296 1.21719L7.4943 8.5042L0.207296 15.7912C-0.0690986 16.0676 -0.0690986 16.5158 0.207296 16.7922C0.483731 17.0686 0.931902 17.0686 1.20834 16.7922L8.49535 9.50524L15.7824 16.7922C16.0636 17.0639 16.5118 17.0561 16.7834 16.7748C17.0483 16.5005 17.0483 16.0655 16.7834 15.7912L9.49643 8.5042Z" fill="black"/>
</svg>
