<svg width="28" height="28" viewBox="0 0 28 28" fill="none" xmlns="http://www.w3.org/2000/svg">
<path d="M27.25 13.9181C27.25 21.1865 21.3219 27.0863 14 27.0863C6.67807 27.0863 0.75 21.1865 0.75 13.9181C0.75 6.64971 6.67807 0.75 14 0.75C21.3219 0.75 27.25 6.64971 27.25 13.9181Z" stroke="#EB800C" stroke-width="1.5"/>
<path d="M14.5 15.3333C15.4205 15.3333 16.1666 14.5871 16.1666 13.6667C16.1666 12.7462 15.4205 12 14.5 12C13.5795 12 12.8333 12.7462 12.8333 13.6667C12.8333 14.5871 13.5795 15.3333 14.5 15.3333Z" fill="#EB800C"/>
<path d="M8.66667 15.3333C9.58714 15.3333 10.3333 14.5871 10.3333 13.6667C10.3333 12.7462 9.58714 12 8.66667 12C7.74619 12 7 12.7462 7 13.6667C7 14.5871 7.74619 15.3333 8.66667 15.3333Z" fill="#EB800C"/>
<path d="M20.3334 15.3333C21.2538 15.3333 22 14.5871 22 13.6667C22 12.7462 21.2538 12 20.3334 12C19.4129 12 18.6667 12.7462 18.6667 13.6667C18.6667 14.5871 19.4129 15.3333 20.3334 15.3333Z" fill="#EB800C"/>
</svg>
