<svg width="28" height="28" viewBox="0 0 28 28" fill="none" xmlns="http://www.w3.org/2000/svg">
<path d="M27 13.9181C27 21.0471 21.1852 26.8363 14 26.8363C6.81476 26.8363 1 21.0471 1 13.9181C1 6.78917 6.81476 1 14 1C21.1852 1 27 6.78916 27 13.9181Z" stroke="#EB800C" stroke-width="2"/>
<path d="M15.0926 11.8025V20.9825H13.1576V11.8025H15.0926ZM15.4166 9.03049C15.4166 9.20449 15.3806 9.36949 15.3086 9.52549C15.2426 9.68149 15.1496 9.81949 15.0296 9.93949C14.9096 10.0535 14.7686 10.1465 14.6066 10.2185C14.4506 10.2845 14.2826 10.3175 14.1026 10.3175C13.9286 10.3175 13.7636 10.2845 13.6076 10.2185C13.4576 10.1465 13.3256 10.0535 13.2116 9.93949C13.0976 9.81949 13.0046 9.68149 12.9326 9.52549C12.8666 9.36949 12.8336 9.20449 12.8336 9.03049C12.8336 8.85049 12.8666 8.68249 12.9326 8.52649C13.0046 8.37049 13.0976 8.23549 13.2116 8.12149C13.3256 8.00149 13.4576 7.90849 13.6076 7.84249C13.7636 7.77049 13.9286 7.73449 14.1026 7.73449C14.2826 7.73449 14.4506 7.77049 14.6066 7.84249C14.7686 7.90849 14.9096 8.00149 15.0296 8.12149C15.1496 8.23549 15.2426 8.37049 15.3086 8.52649C15.3806 8.68249 15.4166 8.85049 15.4166 9.03049Z" fill="#EB800C"/>
</svg>
