<svg width="17" height="17" viewBox="0 0 17 17" fill="none" xmlns="http://www.w3.org/2000/svg">
<path d="M16.7924 15.7909L11.9581 10.9565C12.8945 9.7998 13.4583 8.33 13.4583 6.72918C13.4583 3.01893 10.4394 0 6.72914 0C3.01889 0 0 3.01889 0 6.72914C0 10.4394 3.01893 13.4583 6.72918 13.4583C8.33 13.4583 9.7998 12.8945 10.9565 11.9581L15.7909 16.7924C15.929 16.9306 16.1103 17 16.2917 17C16.473 17 16.6544 16.9306 16.7925 16.7924C17.0694 16.5155 17.0694 16.0678 16.7924 15.7909ZM6.72918 12.0416C3.7995 12.0416 1.41668 9.65882 1.41668 6.72914C1.41668 3.79947 3.7995 1.41664 6.72918 1.41664C9.65885 1.41664 12.0417 3.79947 12.0417 6.72914C12.0417 9.65882 9.65882 12.0416 6.72918 12.0416Z" fill="#373737"/>
</svg>
