<svg width="24" height="12" viewBox="0 0 24 12" fill="none" xmlns="http://www.w3.org/2000/svg">
<path d="M22.7262 2.05732L22.8987 1.89624C23.2343 1.56762 23.3132 0.918803 23.0809 0.446784C22.8466 -0.0294447 22.3857 -0.136925 22.057 0.187203C10.5576 11.569 2.18675 0.747338 1.83509 0.282335C1.53834 -0.110827 1.07072 -0.090903 0.794392 0.326674C0.516673 0.745934 0.530153 1.40177 0.823928 1.79633C0.839786 1.81766 1.10165 2.15694 1.57958 2.65899L0.106538 6.0981C-0.103585 6.58864 0.00663017 7.22904 0.353333 7.52903C0.471873 7.63006 0.606471 7.68085 0.736707 7.68085C0.984295 7.68085 1.22534 7.50265 1.36549 7.18189L2.80582 3.82192C3.6134 4.51788 4.64895 5.27782 5.88273 5.9199L5.17287 9.2796C5.05532 9.83272 5.27516 10.4097 5.66349 10.5741L5.8752 10.6185C6.18899 10.6185 6.48237 10.3266 6.57792 9.8751L7.28084 6.56142C8.41966 7.00229 9.69368 7.30004 11.0686 7.37076V10.6985C11.0686 11.2743 11.3971 11.7393 11.8038 11.7393C12.2102 11.7393 12.5389 11.2743 12.5389 10.6985V7.35224C13.7385 7.25907 15.01 6.96693 16.3375 6.43093L17.2424 9.80915C17.3552 10.2253 17.6347 10.4801 17.9299 10.4801L18.19 10.4145C18.5696 10.2102 18.7621 9.6099 18.6177 9.07277L17.7366 5.78127C18.9454 5.14565 20.1949 4.30881 21.4853 3.19864L22.6765 5.44957C22.8216 5.7215 23.043 5.86742 23.2642 5.86742C23.4185 5.86742 23.5725 5.8012 23.7047 5.65836C24.0306 5.31318 24.0964 4.66072 23.8538 4.20133L22.7262 2.05732Z" fill="url(#paint0_linear_515_1352)"/>
<defs>
<linearGradient id="paint0_linear_515_1352" x1="12" y1="0" x2="12" y2="11.7393" gradientUnits="userSpaceOnUse">
<stop stop-color="#EB800C"/>
<stop offset="1" stop-color="#FABB35"/>
</linearGradient>
</defs>
</svg>
