<svg width="20" height="21" viewBox="0 0 20 21" fill="none" xmlns="http://www.w3.org/2000/svg">
<path d="M19.14 14.29L17.61 16.96L12.63 14.08C12.29 13.86 11.97 13.64 11.67 13.42C11.37 13.2 11.11 12.95 10.89 12.67C11.17 13.29 11.31 14.01 11.31 14.83V20.56H8.19V14.89C8.19 14.03 8.3 13.31 8.52 12.73C8.14 13.23 7.59 13.68 6.87 14.08L1.92 16.93L0.39 14.26L5.31 11.41C6.03 10.99 6.74 10.72 7.44 10.6C6.74 10.52 6.03 10.25 5.31 9.79L0.36 6.91L1.89 4.24L6.87 7.12C7.21 7.34 7.52 7.57 7.8 7.81C8.1 8.03 8.36 8.28 8.58 8.56C8.32 7.92 8.19 7.19 8.19 6.37V0.669999H11.31V6.34C11.31 6.74 11.28 7.12 11.22 7.48C11.18 7.84 11.09 8.18 10.95 8.5C11.41 7.96 11.97 7.5 12.63 7.12L17.58 4.27L19.11 6.94L14.19 9.79C13.85 9.99 13.51 10.17 13.17 10.33C12.83 10.47 12.49 10.56 12.15 10.6C12.49 10.66 12.83 10.76 13.17 10.9C13.51 11.02 13.85 11.19 14.19 11.41L19.14 14.29Z" fill="url(#paint0_linear_527_2146)"/>
<defs>
<linearGradient id="paint0_linear_527_2146" x1="-0.529412" y1="9.38298" x2="-0.327958" y2="21.2483" gradientUnits="userSpaceOnUse">
<stop offset="0.0278821" stop-color="#EB800C"/>
<stop offset="1" stop-color="#FABB35"/>
</linearGradient>
</defs>
</svg>
