<svg width="35" height="35" viewBox="0 0 35 35" fill="none" xmlns="http://www.w3.org/2000/svg">
<circle cx="17.5" cy="17.5" r="16.5" stroke="url(#paint0_linear_445_9039)" stroke-width="2"/>
<path d="M13.781 11.535C14.0303 11.315 14.3017 11.106 14.595 10.908C14.8957 10.71 15.2183 10.5377 15.563 10.391C15.9077 10.2443 16.2817 10.1307 16.685 10.05C17.0883 9.962 17.5247 9.918 17.994 9.918C18.632 9.918 19.2113 10.006 19.732 10.182C20.26 10.358 20.711 10.611 21.085 10.941C21.459 11.2637 21.7487 11.656 21.954 12.118C22.1593 12.58 22.262 13.097 22.262 13.669C22.262 14.2263 22.1813 14.7103 22.02 15.121C21.8587 15.5243 21.657 15.8763 21.415 16.177C21.173 16.4777 20.9053 16.738 20.612 16.958C20.326 17.178 20.0547 17.387 19.798 17.585C19.5413 17.7757 19.3177 17.9663 19.127 18.157C18.9437 18.3403 18.8337 18.5493 18.797 18.784L18.544 20.39H16.685L16.498 18.597C16.454 18.2523 16.5017 17.9517 16.641 17.695C16.7877 17.431 16.9783 17.1927 17.213 16.98C17.455 16.76 17.7227 16.551 18.016 16.353C18.3093 16.1477 18.5843 15.9277 18.841 15.693C19.0977 15.451 19.3103 15.1833 19.479 14.89C19.655 14.5893 19.743 14.2337 19.743 13.823C19.743 13.559 19.6917 13.3243 19.589 13.119C19.4937 12.9063 19.358 12.7267 19.182 12.58C19.006 12.426 18.7933 12.3087 18.544 12.228C18.302 12.1473 18.038 12.107 17.752 12.107C17.334 12.107 16.9783 12.1547 16.685 12.25C16.399 12.338 16.1533 12.4407 15.948 12.558C15.75 12.668 15.5813 12.7707 15.442 12.866C15.3027 12.954 15.178 12.998 15.068 12.998C14.804 12.998 14.6133 12.888 14.496 12.668L13.781 11.535ZM15.86 24.504C15.86 24.2767 15.9003 24.0603 15.981 23.855C16.069 23.6497 16.1863 23.4737 16.333 23.327C16.4797 23.1803 16.6557 23.063 16.861 22.975C17.0663 22.887 17.2863 22.843 17.521 22.843C17.7557 22.843 17.972 22.887 18.17 22.975C18.3753 23.063 18.5513 23.1803 18.698 23.327C18.852 23.4737 18.973 23.6497 19.061 23.855C19.149 24.0603 19.193 24.2767 19.193 24.504C19.193 24.7387 19.149 24.9587 19.061 25.164C18.973 25.362 18.852 25.5343 18.698 25.681C18.5513 25.8277 18.3753 25.9413 18.17 26.022C17.972 26.11 17.7557 26.154 17.521 26.154C17.2863 26.154 17.0663 26.11 16.861 26.022C16.6557 25.9413 16.4797 25.8277 16.333 25.681C16.1863 25.5343 16.069 25.362 15.981 25.164C15.9003 24.9587 15.86 24.7387 15.86 24.504Z" fill="url(#paint1_linear_445_9039)"/>
<defs>
<linearGradient id="paint0_linear_445_9039" x1="2" y1="26.5" x2="32.5" y2="8" gradientUnits="userSpaceOnUse">
<stop stop-color="#EB800C"/>
<stop offset="1" stop-color="#FABB35"/>
</linearGradient>
<linearGradient id="paint1_linear_445_9039" x1="18.5" y1="4" x2="18.5" y2="26" gradientUnits="userSpaceOnUse">
<stop stop-color="#EB800C"/>
<stop offset="1" stop-color="#FABB35"/>
</linearGradient>
</defs>
</svg>
